
                  <!--?xml version="1.0" encoding="UTF-8" standalone="no"?-->
                  <!-- Created with Inkscape (http://www.inkscape.org/) -->
                  
                  <svg width="23.444744mm" height="24.143566mm" viewBox="0 0 23.444744 24.143566" version="1.1" id="svg5" inkscape:version="1.1 (c68e22c387, 2021-05-23)" sodipodi:docname="close.svg" xmlns:inkscape="http://www.inkscape.org/namespaces/inkscape" xmlns:sodipodi="http://sodipodi.sourceforge.net/DTD/sodipodi-0.dtd" xmlns="http://www.w3.org/2000/svg" xmlns:svg="http://www.w3.org/2000/svg">
                    <sodipodi:namedview id="namedview7" pagecolor="#ffffff" bordercolor="#999999" borderopacity="1" inkscape:pageshadow="0" inkscape:pageopacity="0" inkscape:pagecheckerboard="true" inkscape:document-units="mm" showgrid="false" fit-margin-top="0" fit-margin-left="0" fit-margin-right="0" fit-margin-bottom="0" inkscape:zoom="0.75722503" inkscape:cx="92.442798" inkscape:cy="62.729041" inkscape:window-width="1920" inkscape:window-height="1009" inkscape:window-x="-8" inkscape:window-y="-8" inkscape:window-maximized="1" inkscape:current-layer="layer1"></sodipodi:namedview>
                    <defs id="defs2"></defs>
                    <g inkscape:label="Livello 1" inkscape:groupmode="layer" id="layer1" transform="translate(-44.532916,-21.297037)">
                      <path id="rect1027" style="color: rgb(0, 0, 0); fill: rgb(51, 102, 204); stroke-width: 0.617064; stroke-linecap: round; stroke-linejoin: round; paint-order: fill markers;" d="M 67.659983,24.773582 47.908834,45.113459 c -0.423568,0.436192 -1.105556,0.436192 -1.529124,0 L 44.850591,43.53876 c -0.423567,-0.436193 -0.423567,-1.13851 0,-1.574702 L 64.60174,21.624182 c 0.423567,-0.436193 1.105556,-0.436193 1.529123,0 l 1.52912,1.574698 c 0.423567,0.436193 0.423567,1.13851 0,1.574702 z M 47.908835,21.624183 67.659986,41.964061 c 0.423565,0.43619 0.423566,1.138508 -2e-6,1.574701 l -1.529119,1.574699 c -0.423567,0.436191 -1.105557,0.43619 -1.529122,0 L 44.850592,24.773583 c -0.423567,-0.436192 -0.423567,-1.138509 0,-1.574701 l 1.52912,-1.574699 c 0.423567,-0.436192 1.105556,-0.436192 1.529123,0 z"></path>
                    </g>
                  </svg>
                  