<?xml version="1.0" encoding="UTF-8" standalone="no"?>
<!-- Created with Inkscape (http://www.inkscape.org/) -->

<svg
   width="81.762451mm"
   height="81.762566mm"
   viewBox="0 0 81.762451 81.762566"
   version="1.1"
   id="svg5"
   inkscape:version="1.1 (c68e22c387, 2021-05-23)"
   sodipodi:docname="favicon.svg"
   xmlns:inkscape="http://www.inkscape.org/namespaces/inkscape"
   xmlns:sodipodi="http://sodipodi.sourceforge.net/DTD/sodipodi-0.dtd"
   xmlns="http://www.w3.org/2000/svg"
   xmlns:svg="http://www.w3.org/2000/svg">
  <sodipodi:namedview
     id="namedview7"
     pagecolor="#ffffff"
     bordercolor="#999999"
     borderopacity="1"
     inkscape:pageshadow="0"
     inkscape:pageopacity="0"
     inkscape:pagecheckerboard="true"
     inkscape:document-units="mm"
     showgrid="false"
     fit-margin-top="0"
     fit-margin-left="0"
     fit-margin-right="0"
     fit-margin-bottom="0"
     inkscape:zoom="0.53543895"
     inkscape:cx="-5.6028796"
     inkscape:cy="-32.683465"
     inkscape:window-width="1920"
     inkscape:window-height="1009"
     inkscape:window-x="-8"
     inkscape:window-y="-8"
     inkscape:window-maximized="1"
     inkscape:current-layer="layer1" />
  <defs
     id="defs2" />
  <g
     inkscape:label="Livello 1"
     inkscape:groupmode="layer"
     id="layer1"
     transform="translate(-70.581168,-52.761176)">
    <g
       id="g3333">
      <g
         id="g2979"
         transform="translate(11.181176,-12.928235)">
        <path
           style="color:#000000;fill:#00257c;stroke-width:5.97501;stroke-linecap:round;stroke-linejoin:round;-inkscape-stroke:none;paint-order:markers fill stroke"
           d="M 141.16235,106.57059 A 40.881176,40.881176 0 0 1 100.28117,147.45176 40.881176,40.881176 0 0 1 59.399998,106.57059 40.881176,40.881176 0 0 1 100.28117,65.689411 40.881176,40.881176 0 0 1 141.16235,106.57059 Z"
           id="path846" />
        <path
           style="color:#000000;fill:#003bc5;stroke-width:22.5827;stroke-linecap:round;stroke-linejoin:round;-inkscape-stroke:none;paint-order:markers fill stroke"
           d="m 455.61133,306.38086 a 154.51153,154.51153 0 0 0 -154.51172,154.51172 154.51153,154.51153 0 0 0 27.41211,87.80469 154.51153,154.51153 0 0 0 50.5039,8.60156 154.51153,154.51153 0 0 0 154.51172,-154.51172 154.51153,154.51153 0 0 0 -27.48046,-87.9375 154.51153,154.51153 0 0 0 -50.43555,-8.46875 z"
           id="path846-4"
           transform="scale(0.26458333)" />
        <path
           style="color:#000000;fill:#0048f0;stroke-width:22.5827;stroke-linecap:round;stroke-linejoin:round;-inkscape-stroke:none;paint-order:markers fill stroke"
           d="M 326.24219,257.66797 A 154.51153,154.51153 0 0 0 224.50391,402.78711 154.51153,154.51153 0 0 0 261.52344,502.9707 154.51153,154.51153 0 0 0 363.16797,357.88477 154.51153,154.51153 0 0 0 326.24219,257.66797 Z"
           id="path846-4-3"
           transform="scale(0.26458333)" />
      </g>
      <g
         id="g3252"
         transform="translate(-0.00797594,0.36896411)"
         style="fill:#ffffff;fill-opacity:1">
        <path
           style="color:#000000;fill:#ffffff;fill-opacity:1;stroke-width:0.145042;stroke-linecap:round;stroke-linejoin:round;-inkscape-stroke:none;paint-order:markers fill stroke"
           d="m 83.093893,72.492809 a 2.1621113,1.2405132 0 0 0 -1.640701,0.123811 2.1621113,1.2405132 0 0 0 -0.791368,1.694525 l 10.62847,10.562181 18.307286,18.193014 a 2.1623275,1.2406373 0 0 0 3.74478,0 l 18.30728,-18.193014 10.62847,-10.562181 a 2.1621113,1.2405132 0 0 0 -0.79136,-1.694525 2.1621113,1.2405132 0 0 0 -2.9538,0.454047 L 127.90487,83.63285 111.46979,99.965251 95.035075,83.63285 84.406979,73.070667 a 2.1621113,1.2405132 0 0 0 -1.313086,-0.577858 z"
           id="path3003" />
        <path
           style="color:#000000;fill:#ffffff;fill-opacity:1;stroke-width:0.54819;stroke-linecap:round;stroke-linejoin:round;-inkscape-stroke:none;paint-order:markers fill stroke"
           d="m 83.093407,91.369384 a 2.1621128,1.2405141 0 0 0 -1.639675,0.124084 2.1621128,1.2405141 0 0 0 -0.791566,1.695003 l 10.628196,10.561699 18.307828,18.19326 a 2.162329,1.2406381 0 0 0 3.74439,0 l 18.30641,-18.19326 10.62961,-10.561699 a 2.1621128,1.2405141 0 0 0 -0.79156,-1.695003 2.1621128,1.2405141 0 0 0 -2.95425,0.454163 l -10.62819,10.562519 -16.43493,16.332 -16.434907,-16.332 L 84.40656,91.947631 a 2.1621128,1.2405141 0 0 0 -1.313153,-0.578247 z"
           id="path3236" />
      </g>
    </g>
  </g>
</svg>
