
                  <!--?xml version="1.0" encoding="UTF-8" standalone="no"?-->
                  <!-- Created with Inkscape (http://www.inkscape.org/) -->
                  
                  <svg width="49.690506mm" height="60.081604mm" viewBox="0 0 49.690506 60.081604" version="1.1" id="svg5" inkscape:version="1.1 (c68e22c387, 2021-05-23)" sodipodi:docname="trash bin.svg" xmlns:inkscape="http://www.inkscape.org/namespaces/inkscape" xmlns:sodipodi="http://sodipodi.sourceforge.net/DTD/sodipodi-0.dtd" xmlns="http://www.w3.org/2000/svg" xmlns:svg="http://www.w3.org/2000/svg">
                    <sodipodi:namedview id="namedview7" pagecolor="#ffffff" bordercolor="#999999" borderopacity="1" inkscape:pageshadow="0" inkscape:pageopacity="0" inkscape:pagecheckerboard="true" inkscape:document-units="mm" showgrid="false" inkscape:zoom="1.5144501" inkscape:cx="166.39704" inkscape:cy="70.322557" inkscape:window-width="1920" inkscape:window-height="1009" inkscape:window-x="-8" inkscape:window-y="-8" inkscape:window-maximized="1" inkscape:current-layer="layer1" fit-margin-top="0" fit-margin-left="0" fit-margin-right="0" fit-margin-bottom="0"></sodipodi:namedview>
                    <defs id="defs2"></defs>
                    <g inkscape:label="Livello 1" inkscape:groupmode="layer" id="layer1" transform="translate(-60.236634,-75.472911)">
                      <path id="rect1873" style="color: rgb(0, 0, 0); fill: rgb(153, 153, 153); stroke-width: 7.96169; stroke-linecap: round; stroke-linejoin: round; paint-order: markers;" transform="scale(0.26458333)" d="m 308.52734,285.25195 c -3.56664,0 -6.4375,2.87086 -6.4375,6.4375 v 5.71875 h -65.4414 c -4.97666,0 -8.98242,8.54434 -8.98242,19.15821 v 4.34375 h 187.80664 v -4.34375 c 0,-10.61387 -4.00581,-19.15821 -8.98243,-19.15821 h -65.4414 v -5.71875 c 0,-3.56664 -2.87086,-6.4375 -6.4375,-6.4375 z m -72.45312,38.78125 c -4.6273,0 -8.35352,3.72427 -8.35352,8.35157 v 2.90625 c 0,4.62729 3.72622,8.35156 8.35352,8.35156 h 10.88086 V 477.5 c 0,19.29645 15.53364,34.83203 34.83008,34.83203 h 79.5664 c 19.29646,0 34.83203,-15.53558 34.83203,-34.83203 V 343.64258 h 10.88086 c 4.6273,0 8.35352,-3.72427 8.35352,-8.35156 v -2.90625 c 0,-4.6273 -3.72622,-8.35157 -8.35352,-8.35157 z m 45.49414,44.18946 c 4.91466,0 8.87305,3.95838 8.87305,8.87304 v 82.17383 c 0,4.91467 -3.95839,8.87305 -8.87305,8.87305 -4.91466,0 -8.87109,-3.95838 -8.87109,-8.87305 V 377.0957 c 0,-4.91466 3.95643,-8.87304 8.87109,-8.87304 z m 40,0 c 4.91466,0 8.87305,3.95838 8.87305,8.87304 v 82.17383 c 0,4.91467 -3.95839,8.87305 -8.87305,8.87305 -4.91466,0 -8.87109,-3.95838 -8.87109,-8.87305 V 377.0957 c 0,-4.91466 3.95643,-8.87304 8.87109,-8.87304 z m 40.00195,0 c 4.91466,0 8.8711,3.95838 8.8711,8.87304 v 82.17383 c 0,4.91467 -3.95644,8.87305 -8.8711,8.87305 -4.91466,0 -8.87304,-3.95838 -8.87304,-8.87305 V 377.0957 c 0,-4.91466 3.95838,-8.87304 8.87304,-8.87304 z M 257.5,481.84766 h 128.13867 c 0.71857,0 1.29688,0.57835 1.29688,1.29687 v 2.07422 c 0,0.71853 -0.57831,1.29883 -1.29688,1.29883 H 257.5 c -0.71855,0 -1.29687,-0.5803 -1.29688,-1.29883 v -2.07422 c 0,-0.71852 0.57833,-1.29687 1.29688,-1.29687 z"></path>
                    </g>
                  </svg>
                  