
                  <!--?xml version="1.0" encoding="UTF-8" standalone="no"?-->
                  <!-- Created with Inkscape (http://www.inkscape.org/) -->
                  
                  <svg width="29.105011mm" height="25.965607mm" viewBox="0 0 29.105011 25.965607" version="1.1" id="svg5" inkscape:version="1.1 (c68e22c387, 2021-05-23)" sodipodi:docname="like.svg" xmlns:inkscape="http://www.inkscape.org/namespaces/inkscape" xmlns:sodipodi="http://sodipodi.sourceforge.net/DTD/sodipodi-0.dtd" xmlns="http://www.w3.org/2000/svg" xmlns:svg="http://www.w3.org/2000/svg">
                    <sodipodi:namedview id="namedview7" pagecolor="#ffffff" bordercolor="#999999" borderopacity="1" inkscape:pageshadow="0" inkscape:pageopacity="0" inkscape:pagecheckerboard="true" inkscape:document-units="mm" showgrid="false" fit-margin-top="0" fit-margin-left="0" fit-margin-right="0" fit-margin-bottom="0" inkscape:zoom="3.0289001" inkscape:cx="118.19472" inkscape:cy="37.802501" inkscape:window-width="1920" inkscape:window-height="1009" inkscape:window-x="-8" inkscape:window-y="-8" inkscape:window-maximized="1" inkscape:current-layer="layer1"></sodipodi:namedview>
                    <defs id="defs2"></defs>
                    <g inkscape:label="Livello 1" inkscape:groupmode="layer" id="layer1" transform="translate(-79.58516,-61.998282)">
                      <path id="rect846" style="color: rgb(0, 0, 0); fill: rgb(0, 0, 0); stroke-linecap: round; stroke-linejoin: round; paint-order: markers;" d="m 332.44922,234.32422 c -8.10533,0 -16.21118,3.09009 -22.38867,9.26758 -12.35499,12.35498 -12.35499,32.4204 0,44.77539 l 3.73437,3.73633 39.2207,39.21875 a 3.9288199,3.9288199 0 0 0 0.002,0 3.9288199,3.9288199 0 0 0 0.0117,0.01 3.9288189,3.9288189 0 0 0 0.90039,0.6543 3.9288199,3.9288199 0 0 0 0.12695,0.0742 3.9288189,3.9288189 0 0 0 1.02148,0.33203 3.9288199,3.9288199 0 0 0 0.1875,0.0332 3.9288189,3.9288189 0 0 0 1.06055,0 3.9288199,3.9288199 0 0 0 0.17969,-0.0312 3.9288189,3.9288189 0 0 0 1.03516,-0.33789 3.9288199,3.9288199 0 0 0 0.10156,-0.0586 3.9288189,3.9288189 0 0 0 0.93359,-0.67578 l 39.21875,-39.22071 3.73633,-3.73633 c 12.35497,-12.35498 12.35497,-32.41455 0,-44.76953 -6.17749,-6.17749 -14.28528,-9.27148 -22.39063,-9.27148 -8.10531,0 -16.21118,3.09399 -22.38867,9.27148 l -0.95507,0.95508 -0.96094,-0.95898 c -6.17749,-6.17749 -14.28139,-9.26758 -22.38672,-9.26758 z m 46.6914,7.79297 c 6.07213,0 12.14557,2.34282 16.83204,7.02929 9.37296,9.37296 9.37296,24.29501 0,33.66797 l -3.73633,3.73633 -36.43945,36.44141 -36.44532,-36.44531 -3.73437,-3.73633 c -9.37297,-9.37297 -9.37297,-24.28915 0,-33.66211 9.37296,-9.37296 24.2911,-9.37296 33.66406,0 l 3.73437,3.73437 a 3.9288199,3.9288199 0 0 0 0.0234,0.0156 3.9288189,3.9288189 0 0 0 2.75586,1.13476 3.9288189,3.9288189 0 0 0 0.002,0 3.9288189,3.9288189 0 0 0 2.77929,-1.15234 l 3.73438,-3.73438 c 4.68648,-4.68648 10.75795,-7.02929 16.83007,-7.02929 z" transform="scale(0.26458333)"></path>
                    </g>
                  </svg>
                  