<?xml version="1.0" ?><!DOCTYPE svg  PUBLIC '-//W3C//DTD SVG 1.1//EN'  'http://www.w3.org/Graphics/SVG/1.1/DTD/svg11.dtd'><svg enable-background="new 0 0 100 100" height="100px" version="1.1" viewBox="0 0 100 100" width="100px" xml:space="preserve" xmlns="http://www.w3.org/2000/svg" xmlns:xlink="http://www.w3.org/1999/xlink"><g id="color_x5F_fill"><path d="M59.919,65.789c-0.304,1.285-2.428,1.763-3.448,2.182c-1.852,0.762-3.445,1.311-5.973,1.224   c-1.809-0.062-3.655,0.184-5.446-0.112c-1.194-0.198-2.286-0.458-3.417-0.926c-0.912-0.377-1.909-1.184-2.73-1.852   c-0.652-0.53-0.997-1.709,0.092-1.912c0.85-0.159,1.245,0.322,1.783,0.827c1.036,0.972,2.688,1.466,4.043,1.69   c1.697,0.282,3.428,0.348,5.173,0.419c1.009,0.042,1.906-0.108,2.889-0.325c0.935-0.206,1.958-0.468,3.03-0.876   c0.608-0.232,1.169-0.526,1.674-0.942c0.465-0.383,0.975-1.1,1.662-0.788C59.755,64.63,60.045,65.255,59.919,65.789z M58.02,49.979   c-0.93,0.097-2.001,0.902-2.572,1.664c-2.439,3.257,1.557,8.637,5.312,6.709c1.101-0.565,2.081-1.144,2.393-2.348   c0.3-1.165,0.429-2.301-0.071-3.415C62.169,50.559,60.141,49.758,58.02,49.979z M91.705,55.713   c-1.103,11.472-8.41,23.541-18.274,29.511c-7.763,4.698-16.954,8.018-26.117,7.74c-2.553-0.077-5.056-0.59-7.578-0.992   c-13.696-2.177-22.909-13.098-25.977-17.28c-0.515-0.702-1.014-1.455-1.492-2.247c-2.299-3.807-4.119-8.493-4.967-12.572   C6.3,55.056,5.975,45.498,8.843,35.546C18.071,7,45.26,6.983,49.087,7.023c5.805,0.062,11.156,0.666,16.58,2.651   c4.289,1.57,8.301,3.811,11.804,6.749c6.763,5.673,11.366,13.488,13.092,22.136C91.676,44.134,92.251,50.038,91.705,55.713z    M75.903,45.356c-2.281-1.776-5.333-2.508-7.824-0.769l-0.746,0.652c-1.07-1.141-2.989-1.459-4.311-2.239   c-1.388-0.82-2.893-1.297-4.378-1.841c-1.138-0.417-2.319-0.88-3.52-1.046c-1.11-0.153-4.301-0.279-4.301-0.279   c0.103-0.908,0.496-2.724,0.669-3.545c0.222-1.051,0.362-2.078,0.627-3.094c0.554-2.126,0.876-4.327,1.525-6.397   c1.594,0.242,3.077,0.364,4.647,0.636c1.26,0.219,3.405,0.373,4.38,1.214l0.373,1.491c0.349,1.51,1.903,2.659,3.63,2.796   c3.523,0.281,6.354-3.619,4.735-6.893c-1.461-2.952-5.746-3.417-7.527-1.03l-0.746,1.025c-1.854-0.779-3.569-0.718-5.5-1.118   c-1.428-0.296-2.84-1.062-4.288-1.118c-2.188-0.087-1.929,1.271-2.447,2.973c-0.602,1.979-0.687,3.913-1.095,5.887   c-0.279,1.346-0.634,3.28-1.212,4.749l-0.574,2.331c-2.582-0.18-5.599,0.369-8.095,0.86c-2.549,0.501-5.459,1.599-7.177,3.614   l-1.212,1.119c-1.258-0.787-2.293-1.369-3.73-1.748c-3.67-0.968-5.7,1.444-7.198,4.43c-0.688,1.37-0.452,3.064,0.297,4.423   c0.418,0.756,2.271,2.853,2.801,3.148c0,0.532,0.261,2.441,0.388,2.976c0.396,1.669,0.69,3.365,1.415,4.935   c0.882,1.912,2.168,3.595,3.729,5.004c3.404,3.077,7.924,5.168,12.385,6.14c2.898,0.631,6.146,0.664,9.101,0.601   c1.962-0.042,4.001-0.123,5.917-0.597c0.563-0.139,1.112-0.331,1.647-0.556l0.932-0.327c1.305-0.652,2.902-1.116,4.22-1.845   c1.272-0.704,2.672-1.304,3.894-2.07c1.456-0.911,2.885-2.662,3.994-3.946c2.452-2.84,3.13-6.786,3.085-10.314l1.025-0.745   c0.005,0.1,0.989-0.903,1.282-1.308C78.547,51.016,78.344,47.256,75.903,45.356z M43.657,54.771   c0.04-1.236,0.008-2.374-0.894-3.229c-0.873-0.828-1.804-1.492-3.021-1.594c-2.218-0.186-3.901,1.2-4.736,3.162   c-0.367,0.86-0.182,2.188,0.208,3.056C36.879,59.878,43.523,58.99,43.657,54.771z" fill="#FF7465"/></g><g id="offset_x5F_print_x5F_outline"/></svg>