
                  <!--?xml version="1.0" encoding="UTF-8" standalone="no"?-->
                  <!-- Created with Inkscape (http://www.inkscape.org/) -->
                  
                  <svg width="38.42149mm" height="38.42131mm" viewBox="0 0 38.42149 38.42131" version="1.1" id="svg5" inkscape:version="1.1 (c68e22c387, 2021-05-23)" sodipodi:docname="edit.svg" xmlns:inkscape="http://www.inkscape.org/namespaces/inkscape" xmlns:sodipodi="http://sodipodi.sourceforge.net/DTD/sodipodi-0.dtd" xmlns="http://www.w3.org/2000/svg" xmlns:svg="http://www.w3.org/2000/svg">
                    <sodipodi:namedview id="namedview7" pagecolor="#ffffff" bordercolor="#999999" borderopacity="1" inkscape:pageshadow="0" inkscape:pageopacity="0" inkscape:pagecheckerboard="true" inkscape:document-units="mm" showgrid="false" fit-margin-top="0" fit-margin-left="0" fit-margin-right="0" fit-margin-bottom="0" inkscape:zoom="1.0708779" inkscape:cx="-129.80004" inkscape:cy="128.39932" inkscape:window-width="1920" inkscape:window-height="1009" inkscape:window-x="-8" inkscape:window-y="-8" inkscape:window-maximized="1" inkscape:current-layer="layer1"></sodipodi:namedview>
                    <defs id="defs2"></defs>
                    <g inkscape:label="Livello 1" inkscape:groupmode="layer" id="layer1" transform="translate(-80.903095,-63.944257)">
                      <path id="path1902" style="color: rgb(0, 0, 0); fill: rgb(255, 255, 255); stroke-width: 1.14911; stroke-linecap: round; stroke-linejoin: round; paint-order: markers;" d="m 84.005991,93.465847 a 0.57461155,0.57461155 0 0 0 -0.961387,0.257612 l -2.121923,7.918751 a 0.57461155,0.57461155 0 0 0 0.703774,0.70377 l 7.918748,-2.12192 a 0.57461155,0.57461155 0 0 0 0.257979,-0.961022 z M 116.37489,64.855532 c -1.21479,-1.21479 -3.17047,-1.215154 -4.38526,-3.65e-4 l -1.14299,1.142994 6.42386,6.423863 1.143,-1.142994 c 1.21478,-1.214789 1.21478,-3.170101 0,-4.38489 z m -6.2693,1.883676 -25.727248,25.727249 6.423863,6.423863 25.727245,-25.727249 z"></path>
                    </g>
                  </svg>
                  