
                  <!--?xml version="1.0" encoding="UTF-8" standalone="no"?-->
                  <!-- Created with Inkscape (http://www.inkscape.org/) -->
                  
                  <svg width="63.593018mm" height="63.593018mm" viewBox="0 0 63.593018 63.593018" version="1.1" id="svg5" inkscape:version="1.1 (c68e22c387, 2021-05-23)" sodipodi:docname="propic.svg" xmlns:inkscape="http://www.inkscape.org/namespaces/inkscape" xmlns:sodipodi="http://sodipodi.sourceforge.net/DTD/sodipodi-0.dtd" xmlns="http://www.w3.org/2000/svg" xmlns:svg="http://www.w3.org/2000/svg">
                    <sodipodi:namedview id="namedview7" pagecolor="#ffffff" bordercolor="#999999" borderopacity="1" inkscape:pageshadow="0" inkscape:pageopacity="0" inkscape:pagecheckerboard="true" inkscape:document-units="mm" showgrid="false" fit-margin-top="0" fit-margin-left="0" fit-margin-right="0" fit-margin-bottom="0" inkscape:zoom="1.0708779" inkscape:cx="70.035995" inkscape:cy="30.348931" inkscape:window-width="1920" inkscape:window-height="1009" inkscape:window-x="-8" inkscape:window-y="-8" inkscape:window-maximized="1" inkscape:current-layer="layer1"></sodipodi:namedview>
                    <defs id="defs2"></defs>
                    <g inkscape:label="Livello 1" inkscape:groupmode="layer" id="layer1" transform="translate(-76.87076,-47.869429)">
                      <path id="path1110" style="color: rgb(0, 0, 0); fill: rgb(255, 255, 255); stroke-width: 9.99999; stroke-linecap: round; stroke-linejoin: round; paint-order: fill markers;" d="M 410.71094,180.92383 A 120.17564,120.17564 0 0 0 290.53516,301.09961 120.17564,120.17564 0 0 0 410.71094,421.27539 120.17564,120.17564 0 0 0 530.88672,301.09961 120.17564,120.17564 0 0 0 410.71094,180.92383 Z m 0,109.25195 a 19.148865,19.148865 0 0 1 19.14844,19.14844 19.148865,19.148865 0 0 1 -19.14844,19.14844 19.148865,19.148865 0 0 1 -19.14844,-19.14844 19.148865,19.148865 0 0 1 19.14844,-19.14844 z m -0.004,47.54102 a 33.675589,88.480966 0 0 1 32.64063,66.90429 c -10.16213,3.77915 -21.15801,5.84766 -32.64063,5.84766 -11.48046,0 -22.47426,-2.06791 -32.63476,-5.8457 a 33.675589,88.480966 0 0 1 32.63476,-66.90625 z" transform="scale(0.26458333)"></path>
                    </g>
                  </svg>
                  