
                  <!--?xml version="1.0" encoding="UTF-8" standalone="no"?-->
                  <!-- Created with Inkscape (http://www.inkscape.org/) -->
                  
                  <svg width="47.781582mm" height="61.65773mm" viewBox="0 0 47.781582 61.65773" version="1.1" id="svg5" inkscape:version="1.1 (c68e22c387, 2021-05-23)" sodipodi:docname="documents.svg" xmlns:inkscape="http://www.inkscape.org/namespaces/inkscape" xmlns:sodipodi="http://sodipodi.sourceforge.net/DTD/sodipodi-0.dtd" xmlns="http://www.w3.org/2000/svg" xmlns:svg="http://www.w3.org/2000/svg">
                    <sodipodi:namedview id="namedview7" pagecolor="#ffffff" bordercolor="#999999" borderopacity="1" inkscape:pageshadow="0" inkscape:pageopacity="0" inkscape:pagecheckerboard="true" inkscape:document-units="mm" showgrid="false" fit-margin-top="0" fit-margin-left="0" fit-margin-right="0" fit-margin-bottom="0" inkscape:zoom="0.53543895" inkscape:cx="-296.95262" inkscape:cy="135.40292" inkscape:window-width="1920" inkscape:window-height="1009" inkscape:window-x="-8" inkscape:window-y="-8" inkscape:window-maximized="1" inkscape:current-layer="layer1"></sodipodi:namedview>
                    <defs id="defs2"></defs>
                    <g inkscape:label="Livello 1" inkscape:groupmode="layer" id="layer1" transform="translate(-83.56389,-60.502249)">
                      <path id="rect1325-4" style="color: rgb(0, 0, 0); fill: rgb(255, 255, 255); stroke-width: 1.988; stroke-linecap: round; stroke-linejoin: round; paint-order: markers;" d="m 103.90128,98.534119 h 22.1003 c 1.42761,0 2.57691,1.149303 2.57691,2.576911 v 0.43676 c 0,1.42761 -1.1493,2.57692 -2.57691,2.57692 h -22.1003 c -1.42761,0 -2.57691,-1.14931 -2.57691,-2.57692 v -0.43676 c 0,-1.427608 1.1493,-2.576911 2.57691,-2.576911 z m -2.61049,11.530581 h 22.10029 c 1.42761,0 2.57691,1.1493 2.57691,2.57691 v 0.43676 c 0,1.42761 -1.1493,2.57692 -2.57691,2.57692 h -22.10029 c -1.427612,0 -2.576915,-1.14931 -2.576915,-2.57692 v -0.43676 c 0,-1.42761 1.149303,-2.57691 2.576915,-2.57691 z m 0,-32.669993 h 22.10029 c 1.42761,0 2.57691,1.149303 2.57691,2.576912 v 0.436763 c 0,1.42761 -1.1493,2.576913 -2.57691,2.576913 h -22.10029 c -1.427612,0 -2.576915,-1.149303 -2.576915,-2.576913 v -0.436763 c 0,-1.427609 1.149303,-2.576912 2.576915,-2.576912 z m 2.61049,10.482345 h 22.1003 c 1.42761,0 2.57691,1.149303 2.57691,2.576913 v 0.436763 c 0,1.427609 -1.1493,2.576912 -2.57691,2.576912 h -22.1003 c -1.42761,0 -2.57691,-1.149303 -2.57691,-2.576912 v -0.436763 c 0,-1.42761 1.1493,-2.576913 2.57691,-2.576913 z M 87.261855,60.502249 c -2.031542,0 -3.697965,1.666938 -3.697965,3.698483 v 44.208158 c 0,2.03154 1.666423,3.69796 3.697965,3.69796 h 2.521294 v 1.41438 c 0,2.03155 1.665907,3.69745 3.697449,3.69745 h 1.984375 v 1.24437 c 0,2.03154 1.667457,3.69693 3.698999,3.69693 h 28.484568 c 2.03154,0 3.69693,-1.66539 3.69693,-3.69693 V 74.253864 c 0,-2.031542 -1.66539,-3.698999 -3.69693,-3.698999 h -1.98438 v -1.242301 c 0,-2.031542 -1.66797,-3.699515 -3.69951,-3.699515 h -2.52026 v -1.412317 c 0,-2.031545 -1.66643,-3.698483 -3.69797,-3.698483 z m 0,1.987992 h 28.484565 c 0.96458,0 1.70998,0.74591 1.70998,1.710491 v 1.412317 H 93.480598 c -2.031542,0 -3.697449,1.667973 -3.697449,3.699515 v 40.806296 h -2.521294 c -0.964578,0 -1.709973,-0.7454 -1.709973,-1.70997 V 64.200732 c 0,-0.964581 0.745395,-1.710491 1.709973,-1.710491 z m 6.218743,5.111316 h 28.484052 c 0.96458,0 1.711,0.746426 1.711,1.711007 v 1.242301 H 99.163972 c -2.031542,0 -3.698999,1.667457 -3.698999,3.698999 v 40.976826 h -1.984375 c -0.964576,0 -1.708939,-0.74487 -1.708939,-1.70946 V 69.312564 c 0,-0.964581 0.744363,-1.711007 1.708939,-1.711007 z m 5.683374,4.9413 h 28.484568 c 0.96458,0 1.70894,0.746429 1.70894,1.711007 v 44.209186 c 0,0.96458 -0.74436,1.70894 -1.70894,1.70894 H 99.163972 c -0.964578,0 -1.711007,-0.74436 -1.711007,-1.70894 V 74.253864 c 0,-0.964578 0.746429,-1.711007 1.711007,-1.711007 z"></path>
                    </g>
                  </svg>
                  